<?xml version="1.0" encoding="UTF-8"?>
<svg xmlns="http://www.w3.org/2000/svg" xmlns:xlink="http://www.w3.org/1999/xlink" viewBox="0 0 64 64" version="1.1" width="64px" height="64px">
<g id="surface1">
<path style=" fill:#F9E3AE;" d="M 48.519531 23.148438 C 48.601563 13.484375 40.828125 5.585938 31.164063 5.503906 C 21.5 5.425781 13.601563 13.195313 13.519531 22.859375 C 13.46875 29 17.21875 34.570313 22 39.148438 L 22 41 C 22 43.210938 23.789063 45 26 45 L 36 45 C 38.210938 45 40 43.210938 40 41 L 40 39.089844 C 44.75 34.628906 48.46875 29.160156 48.519531 23.148438 Z "/>
<path style=" fill:#FAEFDE;" d="M 17.179688 15.050781 C 17.671875 15.550781 18.351563 15.816406 19.050781 15.789063 C 19.75 15.757813 20.40625 15.429688 20.851563 14.890625 C 23.304688 11.824219 27.015625 10.03125 30.945313 10.015625 C 34.875 10 38.601563 11.761719 41.078125 14.808594 C 41.527344 15.347656 42.179688 15.667969 42.875 15.695313 C 43.574219 15.726563 44.25 15.457031 44.738281 14.960938 C 45.648438 14.042969 45.714844 12.585938 44.890625 11.589844 C 41.457031 7.414063 36.328125 5.003906 30.921875 5.019531 C 25.515625 5.039063 20.402344 7.488281 17 11.691406 C 16.183594 12.683594 16.253906 14.136719 17.160156 15.050781 Z "/>
<path style=" fill:#ACB7D0;" d="M 33 60 L 29 60 L 29 57 L 33 57 Z "/>
<path style=" fill:#C2CDE7;" d="M 33 57 L 29 57 C 25.6875 57 23 54.3125 23 51 L 23 45 L 39 45 L 39 51 C 39 54.3125 36.3125 57 33 57 Z "/>
<path style=" fill:#8D6C9F;" d="M 8 23 C 8 22.449219 7.550781 22 7 22 L 1 22 C 0.449219 22 0 22.449219 0 23 C 0 23.550781 0.449219 24 1 24 L 7 24 C 7.550781 24 8 23.550781 8 23 Z "/>
<path style=" fill:#8D6C9F;" d="M 61 22 L 55 22 C 54.449219 22 54 22.449219 54 23 C 54 23.550781 54.449219 24 55 24 L 61 24 C 61.550781 24 62 23.550781 62 23 C 62 22.449219 61.550781 22 61 22 Z "/>
<path style=" fill:#8D6C9F;" d="M 8.371094 31.058594 L 4.660156 32.558594 C 4.308594 32.679688 4.050781 32.984375 3.992188 33.351563 C 3.933594 33.71875 4.082031 34.085938 4.378906 34.308594 C 4.675781 34.53125 5.074219 34.570313 5.410156 34.410156 L 9.121094 32.910156 C 9.597656 32.683594 9.8125 32.121094 9.613281 31.632813 C 9.417969 31.140625 8.871094 30.890625 8.371094 31.058594 Z "/>
<path style=" fill:#8D6C9F;" d="M 53.25 15 C 53.375 15 53.503906 14.976563 53.621094 14.929688 L 57.328125 13.429688 C 57.808594 13.203125 58.023438 12.640625 57.824219 12.152344 C 57.625 11.664063 57.082031 11.410156 56.578125 11.578125 L 52.871094 13.078125 C 52.433594 13.265625 52.1875 13.730469 52.28125 14.195313 C 52.371094 14.660156 52.777344 14.996094 53.25 15 Z "/>
<path style=" fill:#8D6C9F;" d="M 9.121094 13.078125 L 5.410156 11.578125 C 5.074219 11.417969 4.675781 11.457031 4.378906 11.679688 C 4.082031 11.902344 3.933594 12.273438 3.992188 12.640625 C 4.050781 13.007813 4.308594 13.3125 4.660156 13.429688 L 8.371094 14.929688 C 8.871094 15.097656 9.417969 14.847656 9.613281 14.359375 C 9.8125 13.867188 9.597656 13.308594 9.121094 13.078125 Z "/>
<path style=" fill:#8D6C9F;" d="M 57.339844 32.558594 L 53.628906 31.058594 C 53.292969 30.898438 52.898438 30.9375 52.601563 31.160156 C 52.300781 31.382813 52.152344 31.753906 52.210938 32.121094 C 52.269531 32.488281 52.527344 32.792969 52.878906 32.910156 L 56.589844 34.410156 C 57.089844 34.578125 57.636719 34.328125 57.835938 33.835938 C 58.035156 33.347656 57.816406 32.789063 57.339844 32.558594 Z "/>
<path style=" fill:#8D6C9F;" d="M 34.289063 26.289063 L 30.289063 30.289063 C 30.101563 30.480469 30 30.734375 30 31 L 30 37 C 30 37.550781 30.449219 38 31 38 C 31.550781 38 32 37.550781 32 37 L 32 31.410156 L 35.710938 27.699219 C 36.050781 27.304688 36.027344 26.710938 35.65625 26.34375 C 35.289063 25.972656 34.695313 25.949219 34.300781 26.289063 Z "/>
<path style=" fill:#8D6C9F;" d="M 31 4 C 20.507813 4 12 12.507813 12 23 C 12 28 14.78125 31.691406 17.46875 35.28125 C 19.621094 38.160156 21.648438 40.890625 22 44 L 22 51 C 22.003906 54.476563 24.558594 57.421875 28 57.921875 L 28 59 C 28 60.105469 28.894531 61 30 61 L 32 61 C 33.105469 61 34 60.105469 34 59 L 34 57.921875 C 37.441406 57.421875 39.996094 54.476563 40 51 L 40 44.898438 C 40 41.398438 42.21875 38.429688 44.570313 35.28125 C 47.238281 31.691406 50 28 50 23 C 50 12.507813 41.492188 4 31 4 Z M 24 46 L 38 46 L 38 47.121094 L 24 48.871094 Z M 32 59 L 30 59 L 30 58 L 32 58 Z M 33 56 L 29 56 C 26.238281 56 24 53.761719 24 51 L 24 50.878906 L 38 49.128906 L 38 51 C 38 51 38 51.078125 38 51.121094 L 27.828125 52.390625 C 27.277344 52.421875 26.855469 52.898438 26.890625 53.449219 C 26.921875 54.003906 27.398438 54.421875 27.949219 54.390625 L 28.078125 54.390625 L 37.46875 53.21875 C 36.628906 54.917969 34.898438 55.996094 33 56 Z M 43 34.089844 C 40.761719 37.089844 38.441406 40.21875 38.078125 43.941406 L 32 43.941406 L 32 41 C 32 40.449219 31.550781 40 31 40 C 30.449219 40 30 40.449219 30 41 L 30 43.941406 L 24 43.941406 C 23.640625 40.210938 21.308594 37.101563 19 34.078125 C 16.578125 30.75 14 27.308594 14 23 C 14 13.609375 21.609375 6 31 6 C 40.390625 6 48 13.609375 48 23 C 48 27.308594 45.441406 30.761719 43 34.089844 Z "/>
<path style=" fill:#8D6C9F;" d="M 29.710938 28.289063 L 27.710938 26.289063 C 27.3125 25.949219 26.722656 25.972656 26.351563 26.34375 C 25.984375 26.710938 25.960938 27.304688 26.300781 27.699219 L 28.300781 29.699219 C 28.695313 30.039063 29.289063 30.015625 29.65625 29.648438 C 30.027344 29.277344 30.050781 28.6875 29.710938 28.289063 Z "/>
<path style=" fill:#8D6C9F;" d="M 38.230469 11 C 37.769531 10.808594 37.238281 10.988281 36.984375 11.417969 C 36.734375 11.851563 36.839844 12.402344 37.230469 12.710938 C 38.058594 13.210938 38.824219 13.8125 39.511719 14.5 C 39.910156 14.78125 40.453125 14.734375 40.796875 14.390625 C 41.140625 14.042969 41.1875 13.496094 40.898438 13.101563 C 40.097656 12.292969 39.203125 11.589844 38.230469 11 Z "/>
<path style=" fill:#8D6C9F;" d="M 33.179688 11.199219 C 33.730469 11.300781 34.261719 10.933594 34.359375 10.378906 C 34.460938 9.828125 34.09375 9.300781 33.539063 9.199219 C 29.988281 8.546875 26.320313 9.300781 23.308594 11.300781 C 22.839844 11.605469 22.707031 12.230469 23.011719 12.699219 C 23.3125 13.167969 23.941406 13.304688 24.410156 13 C 26.992188 11.292969 30.132813 10.644531 33.179688 11.199219 Z "/>
</g>
</svg>
